<svg xmlns="http://www.w3.org/2000/svg" viewBox="0 0 1280 640" width="1280" height="640" role="img" aria-label="best-gpt-image-2-prompts · Powered by APIMart">
  <defs>
    <!-- 背景：深绿调 -->
    <linearGradient id="bg" x1="0" y1="0" x2="1" y2="1">
      <stop offset="0%" stop-color="#08140f"/>
      <stop offset="100%" stop-color="#122420"/>
    </linearGradient>
    <!-- 左上品牌绿光晕 -->
    <radialGradient id="glow1" cx="0.15" cy="0.2" r="0.5">
      <stop offset="0%" stop-color="#216D51" stop-opacity="0.45"/>
      <stop offset="100%" stop-color="#216D51" stop-opacity="0"/>
    </radialGradient>
    <!-- 右下冷蓝光晕做互补 -->
    <radialGradient id="glow2" cx="0.85" cy="0.8" r="0.4">
      <stop offset="0%" stop-color="#3a86ff" stop-opacity="0.25"/>
      <stop offset="100%" stop-color="#3a86ff" stop-opacity="0"/>
    </radialGradient>
    <!-- 顶部 accent 渐变线：品牌绿 → 亮绿 → 蓝 → 金 -->
    <linearGradient id="accent" x1="0" y1="0" x2="1" y2="0">
      <stop offset="0%" stop-color="#216D51"/>
      <stop offset="40%" stop-color="#3d9e7c"/>
      <stop offset="75%" stop-color="#3a86ff"/>
      <stop offset="100%" stop-color="#ffd166"/>
    </linearGradient>
  </defs>

  <!-- 背景 -->
  <rect width="1280" height="640" fill="url(#bg)"/>
  <rect width="1280" height="640" fill="url(#glow1)"/>
  <rect width="1280" height="640" fill="url(#glow2)"/>

  <!-- 顶部 accent 线 -->
  <rect x="0" y="0" width="1280" height="4" fill="url(#accent)"/>

  <!-- APIMart Logo 居中上方 -->
  <svg x="570" y="70" width="140" height="140" viewBox="480 470 1100 1100">
    <path fill="#ffffff" d="M 508 528 L 509 1514 L 586 1514 L 588 1512 L 587 610 L 589 607 L 670 607 L 1022 1009 L 1027 1007 L 1388 607 L 1467 607 L 1469 609 L 1470 738 L 1469 1513 L 1551 1513 L 1551 528 L 1350 528 L 1026 901 L 841 687 L 707 528 Z"/>
    <path fill="#ffffff" d="M 627 646 L 626 1513 L 699 1513 L 700 785 L 1008 1131 L 1025 1147 L 1359 781 L 1360 1513 L 1434 1514 L 1435 646 L 1394 647 L 1240 821 L 1024 1059 L 1009 1045 L 789 795 L 661 646 Z"/>
    <path fill="#ffffff" d="M 732 872 L 732 1513 L 802 1514 L 805 1512 L 805 1052 L 888 1145 L 1024 1293 L 1250 1047 L 1250 1513 L 1322 1514 L 1324 1512 L 1323 872 L 1304 890 L 1026 1196 L 1021 1195 Z"/>
  </svg>

  <!-- APIMart 品牌字 -->
  <text x="640" y="240" text-anchor="middle" fill="#cbd5e1"
        font-family="system-ui, -apple-system, 'Segoe UI', Roboto, Helvetica, Arial, sans-serif"
        font-size="18" font-weight="600" letter-spacing="8">APIMART</text>

  <!-- 主标题 -->
  <text x="640" y="320" text-anchor="middle" fill="#ffffff"
        font-family="ui-monospace, SFMono-Regular, Menlo, Monaco, Consolas, monospace"
        font-size="54" font-weight="700">best-gpt-image-2-prompts</text>

  <!-- 副标题 -->
  <text x="640" y="368" text-anchor="middle" fill="#94a3b8"
        font-family="system-ui, -apple-system, 'Segoe UI', Roboto, Helvetica, Arial, sans-serif"
        font-size="22" font-weight="400">A curated gallery of 107 high-quality GPT-Image-2 prompts</text>

  <!-- Stats 胶囊（居中）—— 品牌绿为主，蓝/金为副 -->
  <g transform="translate(640, 405)"
     font-family="system-ui, -apple-system, 'Segoe UI', Roboto, sans-serif"
     font-size="14" font-weight="700">
    <g transform="translate(-211, 0)">
      <rect x="0" y="0" width="130" height="34" rx="17" fill="#216D51" fill-opacity="0.22" stroke="#3d9e7c" stroke-opacity="0.65"/>
      <text x="65" y="23" text-anchor="middle" fill="#6ee7b7">🎨 107 CASES</text>
    </g>
    <g transform="translate(-65, 0)">
      <rect x="0" y="0" width="130" height="34" rx="17" fill="#3a86ff" fill-opacity="0.15" stroke="#3a86ff" stroke-opacity="0.5"/>
      <text x="65" y="23" text-anchor="middle" fill="#3a86ff">📂 5 CATEGORIES</text>
    </g>
    <g transform="translate(81, 0)">
      <rect x="0" y="0" width="130" height="34" rx="17" fill="#ffd166" fill-opacity="0.15" stroke="#ffd166" stroke-opacity="0.5"/>
      <text x="65" y="23" text-anchor="middle" fill="#ffd166">🌍 11 LANGUAGES</text>
    </g>
  </g>

  <!-- 画廊条：17 个方块，绿色渐变为主轴，点缀蓝金 -->
  <g transform="translate(107, 485)">
    <rect x="0"    y="0" width="58" height="72" rx="6" fill="#216D51" fill-opacity="0.85"/>
    <rect x="63"   y="0" width="58" height="72" rx="6" fill="#3d9e7c" fill-opacity="0.85"/>
    <rect x="126"  y="0" width="58" height="72" rx="6" fill="#6ee7b7" fill-opacity="0.75"/>
    <rect x="189"  y="0" width="58" height="72" rx="6" fill="#ffd166" fill-opacity="0.70"/>
    <rect x="252"  y="0" width="58" height="72" rx="6" fill="#216D51" fill-opacity="0.70"/>
    <rect x="315"  y="0" width="58" height="72" rx="6" fill="#3d9e7c" fill-opacity="0.65"/>
    <rect x="378"  y="0" width="58" height="72" rx="6" fill="#3a86ff" fill-opacity="0.60"/>
    <rect x="441"  y="0" width="58" height="72" rx="6" fill="#216D51" fill-opacity="0.55"/>
    <rect x="504"  y="0" width="58" height="72" rx="6" fill="#6ee7b7" fill-opacity="0.50"/>
    <rect x="567"  y="0" width="58" height="72" rx="6" fill="#3d9e7c" fill-opacity="0.45"/>
    <rect x="630"  y="0" width="58" height="72" rx="6" fill="#ffd166" fill-opacity="0.40"/>
    <rect x="693"  y="0" width="58" height="72" rx="6" fill="#216D51" fill-opacity="0.38"/>
    <rect x="756"  y="0" width="58" height="72" rx="6" fill="#3a86ff" fill-opacity="0.32"/>
    <rect x="819"  y="0" width="58" height="72" rx="6" fill="#3d9e7c" fill-opacity="0.28"/>
    <rect x="882"  y="0" width="58" height="72" rx="6" fill="#6ee7b7" fill-opacity="0.22"/>
    <rect x="945"  y="0" width="58" height="72" rx="6" fill="#216D51" fill-opacity="0.20"/>
    <rect x="1008" y="0" width="58" height="72" rx="6" fill="#3d9e7c" fill-opacity="0.16"/>
  </g>

  <!-- 底部署名 -->
  <text x="640" y="602" text-anchor="middle" fill="#64748b"
        font-family="system-ui, -apple-system, 'Segoe UI', Roboto, Helvetica, Arial, sans-serif"
        font-size="14" font-weight="500" letter-spacing="3">
    POWERED BY APIMART  ·  apimart.ai
  </text>
</svg>
